<svg xmlns="http://www.w3.org/2000/svg" width="1280" height="640" viewBox="0 0 1280 640" role="img" aria-label="codetrail: turn a git repository into a local learning guide that keeps up with it"><title>codetrail: turn a git repository into a local learning guide that keeps up with it</title><rect width="1280" height="640" fill="#0f1220"/><circle cx="40.0" cy="610.0" r="4" fill="#9b9bf5" fill-opacity="0.12"/><circle cx="70.1" cy="609.0" r="4" fill="#9b9bf5" fill-opacity="0.12"/><circle cx="100.1" cy="607.4" r="4" fill="#9b9bf5" fill-opacity="0.13"/><circle cx="130.5" cy="605.4" r="4" fill="#9b9bf5" fill-opacity="0.13"/><circle cx="160.8" cy="603.0" r="4" fill="#9b9bf5" fill-opacity="0.14"/><circle cx="191.0" cy="600.1" r="4" fill="#9b9bf5" fill-opacity="0.14"/><circle cx="221.2" cy="596.9" r="4" fill="#9b9bf5" fill-opacity="0.15"/><circle cx="251.3" cy="593.3" r="4" fill="#9b9bf5" fill-opacity="0.16"/><circle cx="281.3" cy="589.4" r="4" fill="#9b9bf5" fill-opacity="0.17"/><circle cx="311.4" cy="585.2" r="4" fill="#9b9bf5" fill-opacity="0.18"/><circle cx="341.5" cy="580.7" r="4" fill="#9b9bf5" fill-opacity="0.19"/><circle cx="371.6" cy="576.1" r="4" fill="#9b9bf5" fill-opacity="0.20"/><circle cx="401.8" cy="571.2" r="4" fill="#9b9bf5" fill-opacity="0.21"/><circle cx="431.5" cy="566.2" r="4" fill="#9b9bf5" fill-opacity="0.22"/><circle cx="461.2" cy="561.1" r="4" fill="#9b9bf5" fill-opacity="0.24"/><circle cx="491.1" cy="555.9" r="4" fill="#9b9bf5" fill-opacity="0.25"/><circle cx="521.2" cy="550.6" r="4" fill="#9b9bf5" fill-opacity="0.26"/><circle cx="550.8" cy="545.4" r="4" fill="#9b9bf5" fill-opacity="0.28"/><circle cx="580.6" cy="540.1" r="4" fill="#9b9bf5" fill-opacity="0.29"/><circle cx="610.6" cy="534.8" r="4" fill="#9b9bf5" fill-opacity="0.31"/><circle cx="640.2" cy="529.7" r="4" fill="#9b9bf5" fill-opacity="0.33"/><circle cx="670.0" cy="524.6" r="4" fill="#9b9bf5" fill-opacity="0.34"/><circle cx="700.1" cy="519.6" r="4" fill="#9b9bf5" fill-opacity="0.36"/><circle cx="729.8" cy="514.8" r="4" fill="#9b9bf5" fill-opacity="0.38"/><circle cx="759.8" cy="510.1" r="4" fill="#9b9bf5" fill-opacity="0.40"/><circle cx="790.1" cy="505.5" r="4" fill="#9b9bf5" fill-opacity="0.41"/><circle cx="820.0" cy="501.2" r="4" fill="#9b9bf5" fill-opacity="0.43"/><circle cx="850.2" cy="497.1" r="4" fill="#9b9bf5" fill-opacity="0.45"/><circle cx="880.2" cy="493.3" r="4" fill="#9b9bf5" fill-opacity="0.47"/><circle cx="910.4" cy="489.7" r="4" fill="#9b9bf5" fill-opacity="0.49"/><circle cx="940.3" cy="486.3" r="4" fill="#9b9bf5" fill-opacity="0.51"/><circle cx="970.6" cy="483.3" r="4" fill="#9b9bf5" fill-opacity="0.54"/><circle cx="1000.6" cy="480.5" r="4" fill="#9b9bf5" fill-opacity="0.56"/><circle cx="1030.9" cy="478.1" r="4" fill="#9b9bf5" fill-opacity="0.58"/><circle cx="1060.8" cy="476.0" r="4" fill="#9b9bf5" fill-opacity="0.60"/><circle cx="1091.2" cy="474.1" r="4" fill="#9b9bf5" fill-opacity="0.62"/><circle cx="1121.2" cy="472.6" r="4" fill="#9b9bf5" fill-opacity="0.65"/><circle cx="1151.6" cy="471.5" r="4" fill="#9b9bf5" fill-opacity="0.67"/><circle cx="1181.7" cy="470.6" r="4" fill="#9b9bf5" fill-opacity="0.70"/><circle cx="1212.1" cy="470.1" r="7" fill="#9b9bf5"/><g transform="translate(390.33 196) scale(2.3333)"><g transform="scale(1.5)"><rect width="32" height="32" rx="7" fill="#5b5bd6"/><path d="M7 10.5L12.5 16L7 21.5" fill="none" stroke="#fff" stroke-width="3" stroke-linecap="round" stroke-linejoin="round"/><circle cx="16.5" cy="21.5" r="2.25" fill="#fff" fill-opacity=".55"/><circle cx="20.5" cy="17.5" r="2.25" fill="#fff" fill-opacity=".8"/><circle cx="24.5" cy="13.5" r="2.25" fill="#fff"/></g><path transform="translate(59.74 36) scale(0.41)" fill="#e6e8f0" d="M28.27 1.17C41.31 1.17 50.78 -7.23 51.66 -18.51H39.5C38.33 -12.79 34.86 -9.08 28.42 -9.08C20.31 -9.08 15.53 -15.58 15.53 -25.73C15.53 -35.94 20.36 -42.48 28.42 -42.48C34.81 -42.48 38.67 -38.62 39.6 -33.11H51.66C50.59 -44.58 41.21 -52.73 28.27 -52.73C13.18 -52.73 3.08 -41.65 3.08 -25.73C3.08 -9.81 13.18 1.17 28.27 1.17ZM80.96 1.17C96.14 1.17 106.4 -9.72 106.4 -25.73C106.4 -41.75 96.14 -52.73 80.96 -52.73C65.77 -52.73 55.52 -41.75 55.52 -25.73C55.52 -9.72 65.77 1.17 80.96 1.17ZM80.96 -9.13C73 -9.13 67.97 -15.43 67.97 -25.73C67.97 -36.08 73.05 -42.43 80.96 -42.43C88.82 -42.43 93.9 -36.04 93.9 -25.73C93.9 -15.48 88.87 -9.13 80.96 -9.13ZM132.82 1.03C139.55 1.03 145.22 -1.9 148.44 -7.86H148.54V0H160.65V-72.75H148.34V-44.24H148.25C144.93 -49.9 139.41 -52.59 132.72 -52.59C119.49 -52.59 110.5 -41.7 110.5 -25.83C110.5 -9.77 119.34 1.03 132.82 1.03ZM135.7 -9.28C128.08 -9.28 122.95 -15.14 122.95 -25.83C122.95 -36.47 128.08 -42.38 135.7 -42.38C143.75 -42.38 149.03 -35.84 149.03 -25.83C149.03 -15.77 143.75 -9.28 135.7 -9.28ZM192.34 1.17C204.4 1.17 213.97 -5.81 215.92 -15.92H204.4C202.98 -11.52 198.83 -8.54 192.63 -8.54C184.33 -8.54 179.55 -14.16 179.25 -22.56H216.56V-25.93C216.56 -41.75 206.7 -52.73 191.85 -52.73C177.4 -52.73 167.19 -41.41 167.19 -25.73C167.19 -10.11 176.86 1.17 192.34 1.17ZM179.35 -31.05C180.18 -38.43 184.92 -42.97 192.05 -42.97C199.18 -42.97 203.96 -38.43 204.74 -31.05ZM250.11 -51.56H239.61V-65.62H227.25V-51.56H218.27V-41.65H227.25V-12.99C227.25 -4.15 232.19 0 242.68 0H250.11V-9.91H244.83C240.83 -9.91 239.61 -11.13 239.61 -14.79V-41.65H250.11ZM255.87 0H268.17V-29.2C268.17 -37.26 272.71 -41.31 278.57 -41.31C281.02 -41.31 283.46 -41.06 284.38 -40.92V-51.86C283.41 -51.95 282.04 -52.05 280.38 -52.05C273.74 -52.05 269.79 -48.93 267.88 -43.02H267.73V-51.56H255.87ZM304.21 0.83C312.61 0.83 316.96 -2.69 319.4 -7.28H319.59V0H331.7V-35.16C331.7 -45.9 323.74 -52.59 310.31 -52.59C296.84 -52.59 288.44 -45.8 287.85 -35.55H299.72C300.06 -39.89 304.06 -43.02 310.07 -43.02C315.98 -43.02 319.49 -39.89 319.49 -35.5V-35.11C319.49 -31.59 316.22 -31.45 306.65 -30.37C296.01 -29.25 286.39 -26.37 286.39 -14.65C286.39 -4.35 293.96 0.83 304.21 0.83ZM307.24 -8.3C301.87 -8.3 298.4 -10.69 298.4 -14.75C298.4 -19.43 302.89 -21.34 308.17 -22.12C313.24 -22.9 318.03 -23.68 319.54 -24.66V-19.09C319.54 -13.09 315.29 -8.3 307.24 -8.3ZM340.59 0H352.89V-51.56H340.59ZM346.74 -59.23C350.94 -59.23 354.12 -62.26 354.12 -66.26C354.12 -70.21 350.94 -73.24 346.74 -73.24C342.54 -73.24 339.37 -70.21 339.37 -66.26C339.37 -62.26 342.54 -59.23 346.74 -59.23ZM374.14 -72.75H361.83V0H374.14Z"/></g><path transform="translate(165.36 392) scale(0.3)" fill="#a1a8bd" d="M4.79 -64.55H27.69V0H36.96V-64.55H59.77V-72.75H4.79ZM82.9 0.68C90.08 0.68 96.03 -2.25 99.6 -10.21V0H108.09V-54.59H99.26V-21.88C99.26 -12.55 93.35 -7.23 85.54 -7.23C77.92 -7.23 73.18 -12.26 73.18 -20.65V-54.59H64.39V-19.92C64.39 -6.1 71.86 0.68 82.9 0.68ZM123.02 0H131.81V-34.18C131.81 -41.55 137.57 -46.88 145.44 -46.88C147.78 -46.88 150.17 -46.48 150.71 -46.39V-55.22C149.68 -55.27 147.54 -55.37 146.27 -55.37C139.77 -55.37 134.11 -51.71 132.11 -46.19H131.52V-54.59H123.02ZM170.52 -32.71C170.52 -42.04 176.43 -47.36 184.29 -47.36C191.91 -47.36 196.6 -42.33 196.6 -33.94V0H205.38V-34.67C205.38 -48.49 197.96 -55.27 186.93 -55.27C179.6 -55.27 173.74 -52.2 170.23 -44.48L170.18 -54.59H161.73V0H170.52ZM263.22 1.27C272.45 1.27 277.58 -3.56 279.43 -7.42H280.02V0H288.66V-35.99C288.66 -53.03 275.53 -55.27 268.2 -55.27C259.76 -55.27 250.38 -52.25 246.18 -42.33L254.63 -39.55C256.34 -43.36 260.59 -47.56 268.45 -47.56C276.02 -47.56 279.87 -43.65 279.87 -36.87V-36.57C279.87 -32.52 275.58 -32.81 265.86 -31.59C255.75 -30.32 244.62 -28.03 244.62 -15.53C244.62 -4.79 252.87 1.27 263.22 1.27ZM264.74 -6.49C258.19 -6.49 253.46 -9.42 253.46 -15.09C253.46 -21.29 259.07 -23.34 265.47 -24.17C268.84 -24.61 278.41 -25.59 279.87 -27.29V-19.73C279.87 -13.04 274.45 -6.49 264.74 -6.49ZM353.34 21.58C366.62 21.58 377.12 15.53 377.12 1.42V-54.59H368.57V-45.85H367.74C365.88 -48.78 362.37 -55.27 351.82 -55.27C338.2 -55.27 328.58 -44.43 328.58 -27.54C328.58 -10.4 338.54 -0.88 351.63 -0.88C362.17 -0.88 365.64 -6.88 367.5 -10.01H368.33V0.93C368.33 9.91 362.03 13.92 353.34 13.92C343.72 13.92 340.3 9.03 338 5.86L330.88 10.45C334.24 16.46 341.23 21.58 353.34 21.58ZM353.09 -8.69C342.84 -8.69 337.52 -16.5 337.52 -27.73C337.52 -38.62 342.69 -47.41 353.09 -47.41C363.15 -47.41 368.42 -39.31 368.42 -27.73C368.42 -15.82 363 -8.69 353.09 -8.69ZM392.04 0H400.83V-54.59H392.04ZM396.49 -63.53C399.86 -63.53 402.64 -66.11 402.64 -69.34C402.64 -72.56 399.86 -75.15 396.49 -75.15C393.17 -75.15 390.38 -72.56 390.38 -69.34C390.38 -66.11 393.17 -63.53 396.49 -63.53ZM437.25 -54.59H426.02V-67.58H417.23V-54.59H409.03V-47.07H417.23V-13.48C417.23 -4.54 422.79 0.68 432.22 0.68C434.46 0.68 436.96 0.34 438.76 -0.29L436.96 -7.71C435.49 -7.42 433.59 -7.13 432.46 -7.13C427.82 -7.13 426.02 -9.28 426.02 -14.16V-47.07H437.25ZM475.6 0H484.39V-34.18C484.39 -41.55 490.15 -46.88 498.02 -46.88C500.36 -46.88 502.75 -46.48 503.29 -46.39V-55.22C502.26 -55.27 500.12 -55.37 498.85 -55.37C492.35 -55.37 486.69 -51.71 484.69 -46.19H484.1V-54.59H475.6ZM534.04 1.17C545.22 1.17 553.38 -4.44 555.91 -12.7L547.42 -15.04C545.37 -9.47 540.53 -6.64 534.09 -6.64C524.42 -6.64 517.78 -12.89 517.34 -24.32H556.79V-27.98C556.79 -48.14 544.59 -55.27 533.01 -55.27C518.12 -55.27 508.45 -43.6 508.45 -26.86C508.45 -10.06 518.22 1.17 534.04 1.17ZM517.39 -31.74C517.93 -40.09 523.64 -47.46 533.01 -47.46C542 -47.46 547.03 -41.02 547.86 -31.74ZM568.89 20.41H577.68V-8.45H578.36C580.17 -5.42 583.83 1.17 594.23 1.17C607.86 1.17 617.33 -9.77 617.33 -27.15C617.33 -44.43 607.81 -55.27 594.18 -55.27C583.54 -55.27 580.17 -48.73 578.36 -45.85H577.39V-54.59H568.89ZM592.91 -6.69C583 -6.69 577.58 -15.09 577.58 -27.25C577.58 -39.31 582.86 -47.41 592.91 -47.41C603.27 -47.41 608.39 -38.57 608.39 -27.25C608.39 -15.77 603.12 -6.69 592.91 -6.69ZM651.84 1.17C666.73 1.17 676.79 -10.11 676.79 -26.95C676.79 -44.04 666.73 -55.27 651.84 -55.27C636.99 -55.27 626.98 -44.04 626.98 -26.95C626.98 -10.11 636.99 1.17 651.84 1.17ZM651.84 -6.69C640.95 -6.69 635.92 -16.21 635.92 -26.95C635.92 -37.84 640.95 -47.41 651.84 -47.41C662.87 -47.41 667.9 -37.79 667.9 -26.95C667.9 -16.21 662.87 -6.69 651.84 -6.69ZM707.64 1.17C720.43 1.17 729.17 -5.81 729.17 -15.38C729.17 -22.85 724.53 -27.78 714.62 -30.13L706.37 -32.08C699.97 -33.59 697.19 -35.84 697.19 -39.89C697.19 -44.43 702.07 -47.8 708.56 -47.8C715.6 -47.8 718.67 -43.99 720.19 -40.09L728.14 -42.14C725.65 -49.8 719.75 -55.27 708.52 -55.27C696.89 -55.27 688.3 -48.73 688.3 -39.36C688.3 -31.69 693.04 -26.81 702.95 -24.46L712.03 -22.31C717.4 -21.04 720.04 -18.55 720.04 -14.79C720.04 -10.3 715.16 -6.54 707.54 -6.54C701 -6.54 696.55 -9.23 694.99 -15.23L686.64 -13.23C688.59 -3.81 696.41 1.17 707.64 1.17ZM741.37 0H750.15V-54.59H741.37ZM745.81 -63.53C749.18 -63.53 751.96 -66.11 751.96 -69.34C751.96 -72.56 749.18 -75.15 745.81 -75.15C742.49 -75.15 739.71 -72.56 739.71 -69.34C739.71 -66.11 742.49 -63.53 745.81 -63.53ZM786.57 -54.59H775.34V-67.58H766.55V-54.59H758.35V-47.07H766.55V-13.48C766.55 -4.54 772.12 0.68 781.54 0.68C783.79 0.68 786.28 0.34 788.08 -0.29L786.28 -7.71C784.81 -7.42 782.91 -7.13 781.78 -7.13C777.14 -7.13 775.34 -9.28 775.34 -14.16V-47.07H786.57ZM818.54 1.17C833.43 1.17 843.49 -10.11 843.49 -26.95C843.49 -44.04 833.43 -55.27 818.54 -55.27C803.7 -55.27 793.69 -44.04 793.69 -26.95C793.69 -10.11 803.7 1.17 818.54 1.17ZM818.54 -6.69C807.65 -6.69 802.62 -16.21 802.62 -26.95C802.62 -37.84 807.65 -47.41 818.54 -47.41C829.57 -47.41 834.6 -37.79 834.6 -26.95C834.6 -16.21 829.57 -6.69 818.54 -6.69ZM855.78 0H864.57V-34.18C864.57 -41.55 870.33 -46.88 878.2 -46.88C880.54 -46.88 882.93 -46.48 883.47 -46.39V-55.22C882.44 -55.27 880.29 -55.37 879.03 -55.37C872.53 -55.37 866.87 -51.71 864.87 -46.19H864.28V-54.59H855.78ZM893.61 19.78C894.54 20.21 896.93 20.8 900.06 20.8C907.77 20.8 913.05 16.85 916.37 8.15L940.34 -54.59H930.77L919.05 -22.22C917.34 -17.48 916.07 -12.74 914.85 -8.2C913.58 -12.74 912.36 -17.43 910.65 -22.22L899.03 -54.59H889.41L910.26 0.29L908.7 4.83C906.02 12.65 902.16 13.82 896.79 12.4L895.86 12.16ZM977.82 0H986.61V-54.59H977.82ZM982.26 -63.53C985.63 -63.53 988.41 -66.11 988.41 -69.34C988.41 -72.56 985.63 -75.15 982.26 -75.15C978.94 -75.15 976.16 -72.56 976.16 -69.34C976.16 -66.11 978.94 -63.53 982.26 -63.53ZM1010.33 -32.71C1010.33 -42.04 1016.23 -47.36 1024.1 -47.36C1031.71 -47.36 1036.4 -42.33 1036.4 -33.94V0H1045.19V-34.67C1045.19 -48.49 1037.77 -55.27 1026.73 -55.27C1019.41 -55.27 1013.55 -52.2 1010.03 -44.48L1009.98 -54.59H1001.54V0H1010.33ZM1081.6 -54.59H1070.37V-67.58H1061.58V-54.59H1053.38V-47.07H1061.58V-13.48C1061.58 -4.54 1067.15 0.68 1076.57 0.68C1078.82 0.68 1081.31 0.34 1083.12 -0.29L1081.31 -7.71C1079.85 -7.42 1077.94 -7.13 1076.82 -7.13C1072.18 -7.13 1070.37 -9.28 1070.37 -14.16V-47.07H1081.6ZM1113.57 1.17C1128.47 1.17 1138.53 -10.11 1138.53 -26.95C1138.53 -44.04 1128.47 -55.27 1113.57 -55.27C1098.73 -55.27 1088.72 -44.04 1088.72 -26.95C1088.72 -10.11 1098.73 1.17 1113.57 1.17ZM1113.57 -6.69C1102.69 -6.69 1097.66 -16.21 1097.66 -26.95C1097.66 -37.84 1102.69 -47.41 1113.57 -47.41C1124.61 -47.41 1129.64 -37.79 1129.64 -26.95C1129.64 -16.21 1124.61 -6.69 1113.57 -6.69ZM1193.73 1.27C1202.96 1.27 1208.08 -3.56 1209.94 -7.42H1210.52V0H1219.17V-35.99C1219.17 -53.03 1206.03 -55.27 1198.71 -55.27C1190.26 -55.27 1180.88 -52.25 1176.69 -42.33L1185.13 -39.55C1186.84 -43.36 1191.09 -47.56 1198.95 -47.56C1206.52 -47.56 1210.38 -43.65 1210.38 -36.87V-36.57C1210.38 -32.52 1206.08 -32.81 1196.36 -31.59C1186.26 -30.32 1175.12 -28.03 1175.12 -15.53C1175.12 -4.79 1183.38 1.27 1193.73 1.27ZM1195.24 -6.49C1188.7 -6.49 1183.96 -9.42 1183.96 -15.09C1183.96 -21.29 1189.58 -23.34 1195.97 -24.17C1199.34 -24.61 1208.91 -25.59 1210.38 -27.29V-19.73C1210.38 -13.04 1204.96 -6.49 1195.24 -6.49ZM1270.51 -72.75H1261.72V0H1270.51ZM1307.66 1.17C1322.55 1.17 1332.61 -10.11 1332.61 -26.95C1332.61 -44.04 1322.55 -55.27 1307.66 -55.27C1292.81 -55.27 1282.8 -44.04 1282.8 -26.95C1282.8 -10.11 1292.81 1.17 1307.66 1.17ZM1307.66 -6.69C1296.77 -6.69 1291.74 -16.21 1291.74 -26.95C1291.74 -37.84 1296.77 -47.41 1307.66 -47.41C1318.69 -47.41 1323.72 -37.79 1323.72 -26.95C1323.72 -16.21 1318.69 -6.69 1307.66 -6.69ZM1367.12 1.17C1377.81 1.17 1386.5 -4.64 1389.43 -14.36L1381.03 -16.75C1379.42 -10.84 1374.44 -6.69 1367.12 -6.69C1356.23 -6.69 1351.2 -16.21 1351.2 -26.95C1351.2 -37.84 1356.23 -47.41 1367.12 -47.41C1374.29 -47.41 1379.18 -43.41 1380.79 -37.79L1389.24 -40.19C1386.26 -49.71 1377.66 -55.27 1367.12 -55.27C1352.27 -55.27 1342.26 -44.04 1342.26 -26.95C1342.26 -10.11 1352.27 1.17 1367.12 1.17ZM1417.79 1.27C1427.02 1.27 1432.14 -3.56 1434 -7.42H1434.59V0H1443.23V-35.99C1443.23 -53.03 1430.09 -55.27 1422.77 -55.27C1414.32 -55.27 1404.95 -52.25 1400.75 -42.33L1409.2 -39.55C1410.9 -43.36 1415.15 -47.56 1423.01 -47.56C1430.58 -47.56 1434.44 -43.65 1434.44 -36.87V-36.57C1434.44 -32.52 1430.14 -32.81 1420.43 -31.59C1410.32 -30.32 1399.19 -28.03 1399.19 -15.53C1399.19 -4.79 1407.44 1.27 1417.79 1.27ZM1419.3 -6.49C1412.76 -6.49 1408.02 -9.42 1408.02 -15.09C1408.02 -21.29 1413.64 -23.34 1420.04 -24.17C1423.4 -24.61 1432.97 -25.59 1434.44 -27.29V-19.73C1434.44 -13.04 1429.02 -6.49 1419.3 -6.49ZM1466.95 -72.75H1458.16V0H1466.95ZM1518.29 -72.75H1509.5V0H1518.29ZM1556.17 1.17C1567.35 1.17 1575.51 -4.44 1578.04 -12.7L1569.55 -15.04C1567.5 -9.47 1562.66 -6.64 1556.22 -6.64C1546.55 -6.64 1539.91 -12.89 1539.47 -24.32H1578.92V-27.98C1578.92 -48.14 1566.72 -55.27 1555.14 -55.27C1540.25 -55.27 1530.58 -43.6 1530.58 -26.86C1530.58 -10.06 1540.35 1.17 1556.17 1.17ZM1539.52 -31.74C1540.06 -40.09 1545.77 -47.46 1555.14 -47.46C1564.13 -47.46 1569.16 -41.02 1569.99 -31.74ZM1607.28 1.27C1616.51 1.27 1621.64 -3.56 1623.49 -7.42H1624.08V0H1632.72V-35.99C1632.72 -53.03 1619.59 -55.27 1612.26 -55.27C1603.81 -55.27 1594.44 -52.25 1590.24 -42.33L1598.69 -39.55C1600.4 -43.36 1604.64 -47.56 1612.51 -47.56C1620.07 -47.56 1623.93 -43.65 1623.93 -36.87V-36.57C1623.93 -32.52 1619.63 -32.81 1609.92 -31.59C1599.81 -30.32 1588.68 -28.03 1588.68 -15.53C1588.68 -4.79 1596.93 1.27 1607.28 1.27ZM1608.79 -6.49C1602.25 -6.49 1597.52 -9.42 1597.52 -15.09C1597.52 -21.29 1603.13 -23.34 1609.53 -24.17C1612.9 -24.61 1622.47 -25.59 1623.93 -27.29V-19.73C1623.93 -13.04 1618.51 -6.49 1608.79 -6.49ZM1647.65 0H1656.44V-34.18C1656.44 -41.55 1662.2 -46.88 1670.06 -46.88C1672.41 -46.88 1674.8 -46.48 1675.34 -46.39V-55.22C1674.31 -55.27 1672.16 -55.37 1670.89 -55.37C1664.4 -55.37 1658.73 -51.71 1656.73 -46.19H1656.15V-54.59H1647.65ZM1695.15 -32.71C1695.15 -42.04 1701.06 -47.36 1708.92 -47.36C1716.54 -47.36 1721.22 -42.33 1721.22 -33.94V0H1730.01V-34.67C1730.01 -48.49 1722.59 -55.27 1711.55 -55.27C1704.23 -55.27 1698.37 -52.2 1694.86 -44.48L1694.81 -54.59H1686.36V0H1695.15ZM1744.94 0H1753.73V-54.59H1744.94ZM1749.38 -63.53C1752.75 -63.53 1755.54 -66.11 1755.54 -69.34C1755.54 -72.56 1752.75 -75.15 1749.38 -75.15C1746.06 -75.15 1743.28 -72.56 1743.28 -69.34C1743.28 -66.11 1746.06 -63.53 1749.38 -63.53ZM1777.45 -32.71C1777.45 -42.04 1783.36 -47.36 1791.22 -47.36C1798.84 -47.36 1803.52 -42.33 1803.52 -33.94V0H1812.31V-34.67C1812.31 -48.49 1804.89 -55.27 1793.86 -55.27C1786.53 -55.27 1780.67 -52.2 1777.16 -44.48L1777.11 -54.59H1768.66V0H1777.45ZM1849.36 21.58C1862.64 21.58 1873.14 15.53 1873.14 1.42V-54.59H1864.6V-45.85H1863.77C1861.91 -48.78 1858.39 -55.27 1847.85 -55.27C1834.22 -55.27 1824.61 -44.43 1824.61 -27.54C1824.61 -10.4 1834.57 -0.88 1847.65 -0.88C1858.2 -0.88 1861.67 -6.88 1863.52 -10.01H1864.35V0.93C1864.35 9.91 1858.05 13.92 1849.36 13.92C1839.74 13.92 1836.32 9.03 1834.03 5.86L1826.9 10.45C1830.27 16.46 1837.25 21.58 1849.36 21.58ZM1849.12 -8.69C1838.86 -8.69 1833.54 -16.5 1833.54 -27.73C1833.54 -38.62 1838.72 -47.41 1849.12 -47.41C1859.18 -47.41 1864.45 -39.31 1864.45 -27.73C1864.45 -15.82 1859.03 -8.69 1849.12 -8.69ZM1937.81 21.58C1951.1 21.58 1961.59 15.53 1961.59 1.42V-54.59H1953.05V-45.85H1952.22C1950.36 -48.78 1946.85 -55.27 1936.3 -55.27C1922.68 -55.27 1913.06 -44.43 1913.06 -27.54C1913.06 -10.4 1923.02 -0.88 1936.11 -0.88C1946.65 -0.88 1950.12 -6.88 1951.97 -10.01H1952.8V0.93C1952.8 9.91 1946.51 13.92 1937.81 13.92C1928.2 13.92 1924.78 9.03 1922.48 5.86L1915.35 10.45C1918.72 16.46 1925.71 21.58 1937.81 21.58ZM1937.57 -8.69C1927.32 -8.69 1921.99 -16.5 1921.99 -27.73C1921.99 -38.62 1927.17 -47.41 1937.57 -47.41C1947.63 -47.41 1952.9 -39.31 1952.9 -27.73C1952.9 -15.82 1947.48 -8.69 1937.57 -8.69ZM1995.03 0.68C2002.21 0.68 2008.16 -2.25 2011.73 -10.21V0H2020.22V-54.59H2011.39V-21.88C2011.39 -12.55 2005.48 -7.23 1997.67 -7.23C1990.05 -7.23 1985.31 -12.26 1985.31 -20.65V-54.59H1976.52V-19.92C1976.52 -6.1 1983.99 0.68 1995.03 0.68ZM2035.15 0H2043.94V-54.59H2035.15ZM2039.6 -63.53C2042.97 -63.53 2045.75 -66.11 2045.75 -69.34C2045.75 -72.56 2042.97 -75.15 2039.6 -75.15C2036.28 -75.15 2033.49 -72.56 2033.49 -69.34C2033.49 -66.11 2036.28 -63.53 2039.6 -63.53ZM2079.33 1.17C2089.73 1.17 2093.39 -5.42 2095.2 -8.45H2096.18V0H2104.67V-72.75H2095.88V-45.85H2095.2C2093.39 -48.73 2090.03 -55.27 2079.38 -55.27C2065.76 -55.27 2056.24 -44.43 2056.24 -27.15C2056.24 -9.77 2065.71 1.17 2079.33 1.17ZM2080.65 -6.69C2070.45 -6.69 2065.17 -15.77 2065.17 -27.25C2065.17 -38.57 2070.3 -47.41 2080.65 -47.41C2090.71 -47.41 2095.98 -39.31 2095.98 -27.25C2095.98 -15.09 2090.56 -6.69 2080.65 -6.69ZM2142.55 1.17C2153.73 1.17 2161.89 -4.44 2164.43 -12.7L2155.93 -15.04C2153.88 -9.47 2149.05 -6.64 2142.6 -6.64C2132.93 -6.64 2126.29 -12.89 2125.85 -24.32H2165.31V-27.98C2165.31 -48.14 2153.1 -55.27 2141.53 -55.27C2126.63 -55.27 2116.97 -43.6 2116.97 -26.86C2116.97 -10.06 2126.73 1.17 2142.55 1.17ZM2125.9 -31.74C2126.44 -40.09 2132.15 -47.46 2141.53 -47.46C2150.51 -47.46 2155.54 -41.02 2156.37 -31.74ZM2226.51 -54.59H2215.28V-67.58H2206.49V-54.59H2198.29V-47.07H2206.49V-13.48C2206.49 -4.54 2212.06 0.68 2221.48 0.68C2223.73 0.68 2226.22 0.34 2228.03 -0.29L2226.22 -7.71C2224.76 -7.42 2222.85 -7.13 2221.73 -7.13C2217.09 -7.13 2215.28 -9.28 2215.28 -14.16V-47.07H2226.51ZM2246.03 -32.71C2246.03 -42.04 2251.94 -47.36 2259.8 -47.36C2267.42 -47.36 2272.11 -42.33 2272.11 -33.94V0H2280.95V-34.67C2280.95 -48.49 2273.47 -55.27 2262.44 -55.27C2255.31 -55.27 2249.6 -52.39 2246.03 -45.12V-72.75H2237.24V0H2246.03ZM2311.16 1.27C2320.39 1.27 2325.51 -3.56 2327.37 -7.42H2327.96V0H2336.6V-35.99C2336.6 -53.03 2323.46 -55.27 2316.14 -55.27C2307.69 -55.27 2298.32 -52.25 2294.12 -42.33L2302.56 -39.55C2304.27 -43.36 2308.52 -47.56 2316.38 -47.56C2323.95 -47.56 2327.81 -43.65 2327.81 -36.87V-36.57C2327.81 -32.52 2323.51 -32.81 2313.79 -31.59C2303.69 -30.32 2292.55 -28.03 2292.55 -15.53C2292.55 -4.79 2300.81 1.27 2311.16 1.27ZM2312.67 -6.49C2306.13 -6.49 2301.39 -9.42 2301.39 -15.09C2301.39 -21.29 2307.01 -23.34 2313.4 -24.17C2316.77 -24.61 2326.34 -25.59 2327.81 -27.29V-19.73C2327.81 -13.04 2322.39 -6.49 2312.67 -6.49ZM2373.01 -54.59H2361.78V-67.58H2352.99V-54.59H2344.79V-47.07H2352.99V-13.48C2352.99 -4.54 2358.56 0.68 2367.98 0.68C2370.23 0.68 2372.72 0.34 2374.53 -0.29L2372.72 -7.71C2371.25 -7.42 2369.35 -7.13 2368.23 -7.13C2363.59 -7.13 2361.78 -9.28 2361.78 -14.16V-47.07H2373.01ZM2411.37 0H2420.16V-20.12L2425.92 -25.54L2445.89 0H2457.17L2432.61 -31.15L2455.46 -54.59H2444.57L2421.23 -30.52H2420.16V-72.75H2411.37ZM2486.45 1.17C2497.63 1.17 2505.79 -4.44 2508.33 -12.7L2499.83 -15.04C2497.78 -9.47 2492.95 -6.64 2486.5 -6.64C2476.83 -6.64 2470.19 -12.89 2469.75 -24.32H2509.21V-27.98C2509.21 -48.14 2497 -55.27 2485.43 -55.27C2470.54 -55.27 2460.87 -43.6 2460.87 -26.86C2460.87 -10.06 2470.63 1.17 2486.45 1.17ZM2469.8 -31.74C2470.34 -40.09 2476.05 -47.46 2485.43 -47.46C2494.41 -47.46 2499.44 -41.02 2500.27 -31.74ZM2544.25 1.17C2555.44 1.17 2563.59 -4.44 2566.13 -12.7L2557.63 -15.04C2555.58 -9.47 2550.75 -6.64 2544.3 -6.64C2534.63 -6.64 2527.99 -12.89 2527.55 -24.32H2567.01V-27.98C2567.01 -48.14 2554.8 -55.27 2543.23 -55.27C2528.34 -55.27 2518.67 -43.6 2518.67 -26.86C2518.67 -10.06 2528.43 1.17 2544.25 1.17ZM2527.6 -31.74C2528.14 -40.09 2533.85 -47.46 2543.23 -47.46C2552.21 -47.46 2557.24 -41.02 2558.07 -31.74ZM2579.11 20.41H2587.89V-8.45H2588.58C2590.38 -5.42 2594.05 1.17 2604.45 1.17C2618.07 1.17 2627.54 -9.77 2627.54 -27.15C2627.54 -44.43 2618.02 -55.27 2604.4 -55.27C2593.75 -55.27 2590.38 -48.73 2588.58 -45.85H2587.6V-54.59H2579.11ZM2603.13 -6.69C2593.22 -6.69 2587.8 -15.09 2587.8 -27.25C2587.8 -39.31 2593.07 -47.41 2603.13 -47.41C2613.48 -47.41 2618.61 -38.57 2618.61 -27.25C2618.61 -15.77 2613.33 -6.69 2603.13 -6.69ZM2658.39 1.17C2671.18 1.17 2679.92 -5.81 2679.92 -15.38C2679.92 -22.85 2675.29 -27.78 2665.37 -30.13L2657.12 -32.08C2650.72 -33.59 2647.94 -35.84 2647.94 -39.89C2647.94 -44.43 2652.82 -47.8 2659.32 -47.8C2666.35 -47.8 2669.43 -43.99 2670.94 -40.09L2678.9 -42.14C2676.41 -49.8 2670.5 -55.27 2659.27 -55.27C2647.65 -55.27 2639.05 -48.73 2639.05 -39.36C2639.05 -31.69 2643.79 -26.81 2653.7 -24.46L2662.79 -22.31C2668.16 -21.04 2670.79 -18.55 2670.79 -14.79C2670.79 -10.3 2665.91 -6.54 2658.29 -6.54C2651.75 -6.54 2647.31 -9.23 2645.74 -15.23L2637.39 -13.23C2639.35 -3.81 2647.16 1.17 2658.39 1.17ZM2738.25 0.68C2745.43 0.68 2751.38 -2.25 2754.95 -10.21V0H2763.45V-54.59H2754.61V-21.88C2754.61 -12.55 2748.7 -7.23 2740.89 -7.23C2733.27 -7.23 2728.53 -12.26 2728.53 -20.65V-54.59H2719.74V-19.92C2719.74 -6.1 2727.21 0.68 2738.25 0.68ZM2778.38 20.41H2787.16V-8.45H2787.85C2789.65 -5.42 2793.32 1.17 2803.72 1.17C2817.34 1.17 2826.81 -9.77 2826.81 -27.15C2826.81 -44.43 2817.29 -55.27 2803.67 -55.27C2793.02 -55.27 2789.65 -48.73 2787.85 -45.85H2786.87V-54.59H2778.38ZM2802.4 -6.69C2792.49 -6.69 2787.07 -15.09 2787.07 -27.25C2787.07 -39.31 2792.34 -47.41 2802.4 -47.41C2812.75 -47.41 2817.88 -38.57 2817.88 -27.25C2817.88 -15.77 2812.6 -6.69 2802.4 -6.69ZM2878.99 0H2887.73L2894.81 -24.71C2896.56 -30.81 2898.27 -37.65 2899.93 -44.58C2901.59 -37.6 2903.25 -30.96 2905.06 -24.71L2912.14 0H2920.88L2937.43 -54.59H2928.11L2921.47 -30.76C2919.81 -24.8 2918 -17.92 2916.19 -9.57C2914.48 -18.02 2912.73 -24.95 2911.16 -30.76L2904.72 -54.59H2895.34L2888.8 -30.76C2887.14 -24.71 2885.38 -17.72 2883.62 -9.42C2881.82 -18.12 2879.96 -25.05 2878.4 -30.76L2871.76 -54.59H2862.43ZM2948.07 0H2956.86V-54.59H2948.07ZM2952.51 -63.53C2955.88 -63.53 2958.66 -66.11 2958.66 -69.34C2958.66 -72.56 2955.88 -75.15 2952.51 -75.15C2949.19 -75.15 2946.41 -72.56 2946.41 -69.34C2946.41 -66.11 2949.19 -63.53 2952.51 -63.53ZM2993.27 -54.59H2982.04V-67.58H2973.25V-54.59H2965.05V-47.07H2973.25V-13.48C2973.25 -4.54 2978.82 0.68 2988.24 0.68C2990.49 0.68 2992.98 0.34 2994.78 -0.29L2992.98 -7.71C2991.51 -7.42 2989.61 -7.13 2988.48 -7.13C2983.85 -7.13 2982.04 -9.28 2982.04 -14.16V-47.07H2993.27ZM3012.79 -32.71C3012.79 -42.04 3018.7 -47.36 3026.56 -47.36C3034.18 -47.36 3038.86 -42.33 3038.86 -33.94V0H3047.7V-34.67C3047.7 -48.49 3040.23 -55.27 3029.2 -55.27C3022.07 -55.27 3016.35 -52.39 3012.79 -45.12V-72.75H3004V0H3012.79ZM3090.26 0H3099.04V-54.59H3090.26ZM3094.7 -63.53C3098.07 -63.53 3100.85 -66.11 3100.85 -69.34C3100.85 -72.56 3098.07 -75.15 3094.7 -75.15C3091.38 -75.15 3088.6 -72.56 3088.6 -69.34C3088.6 -66.11 3091.38 -63.53 3094.7 -63.53ZM3135.46 -54.59H3124.23V-67.58H3115.44V-54.59H3107.24V-47.07H3115.44V-13.48C3115.44 -4.54 3121.01 0.68 3130.43 0.68C3132.68 0.68 3135.17 0.34 3136.97 -0.29L3135.17 -7.71C3133.7 -7.42 3131.8 -7.13 3130.67 -7.13C3126.04 -7.13 3124.23 -9.28 3124.23 -14.16V-47.07H3135.46ZM3152.88 0.63C3156.54 0.63 3159.47 -2.29 3159.47 -5.96C3159.47 -9.62 3156.54 -12.55 3152.88 -12.55C3149.22 -12.55 3146.29 -9.62 3146.29 -5.96C3146.29 -2.29 3149.22 0.63 3152.88 0.63Z"/></svg>
